<svg xmlns="http://www.w3.org/2000/svg" width="36" height="36" viewBox="0 0 36 36"><g transform="translate(-6 -6)"><path d="M42,37a5,5,0,0,1-5,5H11a5,5,0,0,1-5-5V11a5,5,0,0,1,5-5H37a5,5,0,0,1,5,5Z" fill="#673ab7"/><path d="M33.03,25.6a4.929,4.929,0,0,0-2.8-1.85A4.5,4.5,0,0,0,32.17,22,5.883,5.883,0,0,0,33,18.82a5.716,5.716,0,0,0-2.34-4.93A9.839,9.839,0,0,0,24.35,12H15V36H25.43c2.83-.02,4.96-.63,6.41-1.8A6.469,6.469,0,0,0,34,28.9,5.483,5.483,0,0,0,33.03,25.6ZM21,16h4.25a2.75,2.75,0,0,1,0,5.5H21Zm5,16H21V26h5a3,3,0,0,1,0,6Z" fill="#fff"/></g></svg>