<svg xmlns="http://www.w3.org/2000/svg" width="47.937" height="32.994" viewBox="0 0 47.937 32.994"><g transform="translate(-0.141 -9.021)"><path d="M44.123,37.23a2.354,2.354,0,0,1-.027,1.557c-.246.715-1.846.565-1.851,1.6,0,.8,1.4,1.035,3.322.356a1.831,1.831,0,0,0,1.165-1.471,7.5,7.5,0,0,0-.133-4.5c-.3-.642-.788-1.191-1.048-1.853a4.507,4.507,0,0,1-.013-2.8c.246-.916.641-1.786.907-2.7.159-.544,1.385-3.458,1.055-3.919-.391-.545-2.339,1.7-2.967,1.933-1.718.641-3.1,3.043-3.707,4.69-.659,1.785.54,3.454,1.7,4.678A5.2,5.2,0,0,1,44.123,37.23Z" fill="#9e4d20"/><path d="M43.562,41.636a2.3,2.3,0,0,1-1.331-.338,1.1,1.1,0,0,1-.486-.915c0-.919.792-1.237,1.313-1.447.2-.08.531-.215.564-.312a1.781,1.781,0,0,0,.023-1.229l-.014-.067a4.615,4.615,0,0,0-1.391-2.1l-.075-.078c-.664-.7-2.686-2.823-1.811-5.195.688-1.868,2.15-4.3,4-4.986a7.024,7.024,0,0,0,.953-.763c.95-.835,1.566-1.353,2.1-1.281a.7.7,0,0,1,.494.289c.318.443.149,1.274-.75,3.7-.109.3-.2.53-.23.647-.127.435-.282.859-.438,1.285-.176.479-.342.933-.468,1.4a3.992,3.992,0,0,0,0,2.484,5.6,5.6,0,0,0,.523.94,7.982,7.982,0,0,1,.512.881,8.051,8.051,0,0,1,.173,4.8A2.314,2.314,0,0,1,45.73,41.21,6.646,6.646,0,0,1,43.562,41.636ZM44.627,37.2a2.728,2.728,0,0,1-.059,1.751,1.727,1.727,0,0,1-1.136.912c-.558.226-.687.323-.688.522,0,.024,0,.052.063.1a3.5,3.5,0,0,0,2.592-.214,1.327,1.327,0,0,0,.84-1.088,7.016,7.016,0,0,0-.093-4.2,7.055,7.055,0,0,0-.449-.77,6.394,6.394,0,0,1-.612-1.113,4.948,4.948,0,0,1-.031-3.109c.138-.512.319-1.008.494-1.486.147-.4.3-.809.417-1.221.037-.13.132-.388.253-.715a22,22,0,0,0,.8-2.476c-.324.228-.771.619-1.048.864a5.2,5.2,0,0,1-1.264.948c-1.428.533-2.771,2.651-3.414,4.4-.449,1.22.059,2.542,1.6,4.16l.074.078a5.425,5.425,0,0,1,1.647,2.6l-.49.1Z" fill="#010101"/><path d="M14.346,31.3c-.1.907-.606,4.684-.793,5.919-.16,1.053-1.716,1.967-2.106,2.074-2.253.619-1.628,2.011.287,1.979.857-.014.739.043,1.6.032a2.924,2.924,0,0,0,1.374-.376A2.505,2.505,0,0,0,15.5,40a32.857,32.857,0,0,0,3.805-9.674,3.437,3.437,0,0,0-.169-2.63c-.656-.986-3.137-1.821-4.164-1.044C13.8,27.541,14.488,30.063,14.346,31.3Z" fill="#9e4d20"/><path d="M13.111,41.811c-.292,0-.45-.01-.606-.02-.177-.011-.351-.022-.764-.015-1.2,0-2.113-.478-2.222-1.237-.04-.278-.028-1.223,1.8-1.724.312-.085,1.629-.907,1.745-1.667.182-1.2.688-5,.791-5.9h0a8.326,8.326,0,0,0-.026-1.285c-.086-1.3-.192-2.923.848-3.711a2.787,2.787,0,0,1,2.114-.346,4.4,4.4,0,0,1,2.769,1.511,3.879,3.879,0,0,1,.241,3.015,33.24,33.24,0,0,1-3.863,9.821,2.936,2.936,0,0,1-.972,1.11,3.431,3.431,0,0,1-1.624.446ZM11.98,40.774c.279,0,.432.009.586.019.175.011.352.019.756.016a2.416,2.416,0,0,0,1.124-.305,2.081,2.081,0,0,0,.624-.761,32.261,32.261,0,0,0,3.748-9.527,3.008,3.008,0,0,0-.1-2.246,3.538,3.538,0,0,0-2.1-1.078,1.845,1.845,0,0,0-1.343.156c-.611.463-.524,1.785-.454,2.848a8.684,8.684,0,0,1,.021,1.465c-.106.933-.607,4.7-.8,5.938-.2,1.314-1.942,2.336-2.468,2.481-.909.249-1.077.568-1.07.616.016.114.4.367,1.216.38Z" fill="#010101"/><path d="M45.967,19.014A9.73,9.73,0,0,0,44.8,16.836c-.838-1.1-.864-1.538-3.3-2.452-5.265-1.974-9.505-3.707-14.733-1.639-1,.393-3.643,1.927-4.713,1.945-1.175.02-1.686-.741-2.731-1.277a10.492,10.492,0,0,1-2.6-1.695,11.425,11.425,0,0,0-1.234-1.207,4.947,4.947,0,0,0-2.392-.728A21.89,21.89,0,0,0,2.545,11.3,2.911,2.911,0,0,0,.728,12.8a3.1,3.1,0,0,0,.2,1.937,9.443,9.443,0,0,0,1.795,3.6,4.754,4.754,0,0,0,3.232,1.491c1.046.046,2.139-.251,3.117.124a3.912,3.912,0,0,1,1.358.987c1.558,1.6,1.956,3.882,3.092,5.809a11.663,11.663,0,0,0,4.529,4.82,13.623,13.623,0,0,0,4.855,1.046l7.816.7a26.754,26.754,0,0,0,3.763.16,14.223,14.223,0,0,0,7.758-3,9.512,9.512,0,0,1,5.266-6.941A24.825,24.825,0,0,0,45.967,19.014Z" fill="#c56528"/><path d="M33.725,33.99c-1.029,0-2.05-.092-3.045-.181l-7.815-.7a14.179,14.179,0,0,1-5.031-1.1A12.264,12.264,0,0,1,13.095,27a18.577,18.577,0,0,1-1.112-2.357,10.225,10.225,0,0,0-1.908-3.356A3.5,3.5,0,0,0,8.9,20.414a4.423,4.423,0,0,0-1.832-.123,10.9,10.9,0,0,1-1.127.033,5.249,5.249,0,0,1-3.576-1.65,9.906,9.906,0,0,1-1.9-3.782,3.534,3.534,0,0,1-.2-2.257,3.368,3.368,0,0,1,2.1-1.8A22.313,22.313,0,0,1,13.145,9.286a5.381,5.381,0,0,1,2.63.817,5.977,5.977,0,0,1,.908.854c.126.137.252.273.385.4a10.009,10.009,0,0,0,2.484,1.607,7.984,7.984,0,0,1,.947.594,2.486,2.486,0,0,0,1.547.629A12.617,12.617,0,0,0,25.263,12.9c.536-.265,1.008-.5,1.32-.62,5.231-2.068,9.56-.443,14.57,1.439l.522.2c2.143.8,2.556,1.281,3.217,2.2.093.128.191.266.306.416a10.172,10.172,0,0,1,1.231,2.288h0A25.224,25.224,0,0,1,48,23.433l.076.385-.354.166a9.086,9.086,0,0,0-4.984,6.571l-.034.2-.165.12a14.611,14.611,0,0,1-8.026,3.093C34.25,33.984,33.987,33.99,33.725,33.99ZM7.862,19.256a3.813,3.813,0,0,1,1.391.225,4.429,4.429,0,0,1,1.538,1.1,11.143,11.143,0,0,1,2.114,3.671,17.8,17.8,0,0,0,1.05,2.232,11.37,11.37,0,0,0,4.32,4.626,13.2,13.2,0,0,0,4.679,1l7.816.7a27.4,27.4,0,0,0,3.692.159,13.548,13.548,0,0,0,7.327-2.787A10.089,10.089,0,0,1,46.94,23.26,27.185,27.185,0,0,0,45.506,19.2h0a9.131,9.131,0,0,0-1.1-2.066c-.121-.159-.226-.3-.322-.438-.551-.767-.8-1.116-2.757-1.85l-.523-.2c-5.015-1.884-8.975-3.372-13.851-1.445-.3.116-.739.337-1.244.587a11.33,11.33,0,0,1-3.643,1.393,3.509,3.509,0,0,1-2.137-.809,7.075,7.075,0,0,0-.831-.524,10.814,10.814,0,0,1-2.725-1.78c-.146-.143-.284-.292-.422-.441a5.084,5.084,0,0,0-.753-.717,4.522,4.522,0,0,0-2.154-.638,21.367,21.367,0,0,0-10.3,1.479c-.608.249-1.333.61-1.534,1.2a2.676,2.676,0,0,0,.2,1.618,9.148,9.148,0,0,0,1.686,3.415,4.233,4.233,0,0,0,2.888,1.332A8.669,8.669,0,0,0,7,19.294C7.282,19.274,7.571,19.256,7.862,19.256Z" fill="#010101"/><path d="M21.884,30.371a51.714,51.714,0,0,1,1.563,8.576c.223,2.362-1.863,2.644-3.351,2.553-1.564-.1-3.415-1.117-.8-1.787.7-.178,1.053-.287.989-1.755-.11-2.524-.457-4.2-2.074-6.144-.718-.862-1.63-2.073-1.819-2.394" fill="#c56528"/><path d="M20.565,42.015c-.161,0-.328-.005-.5-.016-.95-.058-2.489-.49-2.575-1.4s1.246-1.257,1.684-1.369c.573-.146.661-.17.614-1.25-.106-2.444-.438-4.02-1.959-5.845-.689-.826-1.648-2.091-1.866-2.46a.5.5,0,1,1,.862-.508c.157.266,1.032,1.438,1.772,2.327,1.694,2.033,2.076,3.833,2.19,6.442.07,1.617-.364,2.005-1.365,2.262a2.888,2.888,0,0,0-.875.335A3.248,3.248,0,0,0,20.126,41a3.28,3.28,0,0,0,2.448-.588,1.7,1.7,0,0,0,.375-1.419c-.084-.6-.16-1.172-.231-1.712A39.911,39.911,0,0,0,21.4,30.511a.5.5,0,1,1,.96-.279,40.779,40.779,0,0,1,1.345,6.919c.071.539.146,1.108.233,1.728a2.686,2.686,0,0,1-.649,2.23A3.66,3.66,0,0,1,20.565,42.015Z" fill="#010101"/><path d="M33.481,31.254a8.825,8.825,0,0,0,2.735,3.713c.712.564,1.577,1.112,1.753,2a1.654,1.654,0,0,1-.894,1.912c-.761.51-.908.195-1.691.67-.734.319-.766,1.4.108,1.451.452.024,1,0,1.456-.015a6.355,6.355,0,0,0,1.756-.171,2.725,2.725,0,0,0,1.128-.881,9.223,9.223,0,0,0,.961-1.2,9.162,9.162,0,0,0,.72-1.533l1.113-2.807c-.652-1.082-1.337-8.039,4.79-10.719" fill="#c56528"/><path d="M35.969,41.516c-.175,0-.345,0-.505-.013a1.135,1.135,0,0,1-1.11-.928,1.377,1.377,0,0,1,.83-1.48,2.5,2.5,0,0,1,.938-.351,1.5,1.5,0,0,0,.674-.276c.648-.435.808-.762.683-1.4-.116-.588-.68-1.021-1.276-1.479l-.3-.23a9.274,9.274,0,0,1-2.892-3.925.5.5,0,1,1,.933-.359,8.271,8.271,0,0,0,2.579,3.5l.285.221a3.687,3.687,0,0,1,1.647,2.078A2.159,2.159,0,0,1,37.352,39.3a2.482,2.482,0,0,1-1.041.428,1.689,1.689,0,0,0-.67.254c-.261.118-.324.31-.305.417.007.037.019.1.181.107.416.023.921.007,1.408-.016.148-.006.291-.008.431-.011a4.051,4.051,0,0,0,1.195-.137,2.314,2.314,0,0,0,.906-.737,8.907,8.907,0,0,0,.911-1.136,8.873,8.873,0,0,0,.675-1.443l1.036-2.613a9.447,9.447,0,0,1,.124-5.669,8.8,8.8,0,0,1,5.011-5.525.5.5,0,0,1,.4.916,7.736,7.736,0,0,0-4.458,4.912,8.2,8.2,0,0,0-.1,5.09.5.5,0,0,1,.037.443l-1.113,2.808A9.674,9.674,0,0,1,41.214,39,9.539,9.539,0,0,1,40.2,40.273,3.184,3.184,0,0,1,38.851,41.3a4.967,4.967,0,0,1-1.479.184c-.131,0-.266.005-.4.011C36.637,41.5,36.294,41.516,35.969,41.516Z" fill="#010101"/><path d="M8.516,12.9a6.386,6.386,0,0,1-.647-.033.5.5,0,0,1-.43-.632,1.52,1.52,0,0,1,2.238-.9.5.5,0,0,1,.193.206c.042.014.084.028.125.045a.609.609,0,0,1,.407.458.616.616,0,0,1-.526.7A6.276,6.276,0,0,1,8.516,12.9Z" fill="#010101"/><path d="M1.775,15.008a4.385,4.385,0,0,1-.768-.067.5.5,0,0,1-.4-.579.494.494,0,0,1,.579-.4A3.476,3.476,0,0,0,2.015,14a.493.493,0,0,1,.534.464A.5.5,0,0,1,2.086,15C1.983,15,1.879,15.008,1.775,15.008Z" fill="#010101"/><path d="M13.9,10.894c1.053-2.154,4.356-1.819,2.059,1.34" fill="#c56528"/><path d="M15.962,12.734a.491.491,0,0,1-.293-.1.5.5,0,0,1-.11-.7c.676-.93.776-1.528.658-1.758a.4.4,0,0,0-.382-.161,1.823,1.823,0,0,0-1.481,1.092.5.5,0,0,1-.9-.44,2.809,2.809,0,0,1,2.368-1.652,1.338,1.338,0,0,1,1.282.7c.247.478.319,1.352-.738,2.805A.5.5,0,0,1,15.962,12.734Z" fill="#010101"/><path d="M15.715,20.786a.5.5,0,0,1-.312-.11,2.174,2.174,0,0,0-1-.447.5.5,0,0,1-.412-.574.494.494,0,0,1,.575-.412,3.162,3.162,0,0,1,1.466.654.5.5,0,0,1-.314.889Z" fill="#010101"/><path d="M20.691,19.342a.509.509,0,0,1-.214-.048,5.791,5.791,0,0,0-1.777-.516.5.5,0,0,1-.435-.557.49.49,0,0,1,.557-.436,6.786,6.786,0,0,1,2.083.6.5.5,0,0,1-.214.953Z" fill="#010101"/><path d="M22.845,25.675a.5.5,0,0,1-.294-.1L21,24.444a.5.5,0,1,1,.589-.808l1.556,1.135a.5.5,0,0,1-.3.9Z" fill="#010101"/><path d="M18.6,26.884a.509.509,0,0,1-.194-.039,10.642,10.642,0,0,1-2.29-1.2,3.727,3.727,0,0,1-.759-.734.5.5,0,1,1,.8-.6,2.768,2.768,0,0,0,.561.538,9.677,9.677,0,0,0,2.078,1.078.5.5,0,0,1-.194.96Z" fill="#010101"/><path d="M29.025,24.861a.522.522,0,0,1-.169-.029l-1.461-.524a.5.5,0,0,1,.338-.942l1.461.524a.5.5,0,0,1-.169.971Z" fill="#010101"/><path d="M26.23,19.146q-.771,0-1.538-.035a.5.5,0,0,1-.477-.521.493.493,0,0,1,.522-.477c.943.042,1.9.046,2.849,0a.51.51,0,0,1,.521.479.5.5,0,0,1-.479.521C27.165,19.137,26.7,19.146,26.23,19.146Z" fill="#010101"/><path d="M34.874,17.15a.5.5,0,0,1-.382-.177,1.626,1.626,0,0,0-1.07-.37,10.93,10.93,0,0,0-1.754-.013.5.5,0,0,1-.072-1,12.206,12.206,0,0,1,1.912.015,2.481,2.481,0,0,1,1.748.72.5.5,0,0,1-.382.823Z" fill="#010101"/><path d="M34.815,20.927c-1.115,0-2.237-.056-3.342-.164a.5.5,0,0,1-.449-.547.513.513,0,0,1,.547-.449,33.752,33.752,0,0,0,3.725.156H35.3a.5.5,0,0,1,.008,1C35.146,20.925,34.98,20.927,34.815,20.927Z" fill="#010101"/><path d="M36.8,27.882a6.055,6.055,0,0,1-2.22-.422l-.2-.083a2.535,2.535,0,0,0-.634-.206.5.5,0,0,1,.125-.993,3.461,3.461,0,0,1,.893.274l.188.077a5.113,5.113,0,0,0,2.525.307.5.5,0,0,1,.133.991A6.052,6.052,0,0,1,36.8,27.882Z" fill="#010101"/><path d="M29.525,29.3a3.517,3.517,0,0,1-2.461-1,.5.5,0,0,1,.7-.711,2.555,2.555,0,0,0,2.217.67.5.5,0,0,1,.193.981A3.406,3.406,0,0,1,29.525,29.3Z" fill="#010101"/><path d="M40.9,24.646a.494.494,0,0,1-.24-.062,1.148,1.148,0,0,0-.468-.064l-2.754-.048a.5.5,0,0,1-.491-.509.491.491,0,0,1,.509-.491l2.753.048a1.933,1.933,0,0,1,.932.188.5.5,0,0,1-.241.938Z" fill="#010101"/><path d="M42.15,20.01a.5.5,0,0,1-.425-.236A2.9,2.9,0,0,0,40.1,18.537a.5.5,0,0,1,.281-.959,3.906,3.906,0,0,1,2.195,1.669.5.5,0,0,1-.424.763Z" fill="#010101"/><path d="M5.03,19.108a.5.5,0,0,1-.2-.043A2.789,2.789,0,0,0,3.8,18.92a4.316,4.316,0,0,1-1.146-.133.5.5,0,1,1,.283-.959,3.561,3.561,0,0,0,.888.093,3.594,3.594,0,0,1,1.4.23.5.5,0,0,1-.2.957Z" fill="#010101"/></g></svg>