<svg xmlns="http://www.w3.org/2000/svg" viewBox="0 0 96 96"><path fill="#8d6e63" d="M19.735,28.654l-1.122,2.245l-1.695,6.25l-1.411,3.25C15.348,40.764,14.988,41,14.59,41H10.47l2.283-1.728l0.753-2.657l0.617-11.327L19.735,28.654z"/><path fill="#a1887f" d="M34,13c-2.786-0.164-6.799,0.523-10.242,1.401c-0.992,0.253-2.039,0.104-2.92-0.416l-6.15-3.634L14.9,9.648c-7.593-0.216-10.124,0.783-12.947,1.87c-1.406,0.612-2.172,1.739-1.897,3.112l0.712,2.437c0.075,0.363,0.512,0.912,1.322,0.935l0.339,1.109c0.087,0.254,0.549,0.304,0.812,0.359c1.493,0.191,3.004,0.28,4.53,0.281c0.92,0.001,1.77,0.49,2.193,1.307l3.514,5.782C14.573,29.86,17.602,33,21,33c0.189,0-0.185,0.013,0,0h15c7.928,0,12-8.608,12-8.608S48.184,13.836,34,13z"/><path fill="#a1887f" d="M13.037,11.697c0,0,0,0,0-1.764s2.245-1.764,2.245,0s0,1.764,0,1.764H13.037z"/><path fill="#a1887f" d="M15.628,28.822l4.459,7.689l0.645,2.895L18.612,41h4.427c0.619,0,1.089-0.557,0.984-1.167l-0.57-3.322l-1.522-6.734L15.628,28.822z"/><path fill="#8d6e63" d="M48,24.392c0,0-4,5.608-1.207,10.996v4.34c0,0.702-0.569,1.272-1.272,1.272h-4.055l2.245-1.122v-2.657c0-0.434-0.218-0.834-0.583-1.068c-1.489-0.953-5.314-3.664-5.314-6.376C37.814,26.41,48,24.392,48,24.392z"/><path fill="#a1887f" d="M48,24.392c-4.174,1.043-7.568,7.217-6.162,10.996l-1.934,4.836C39.716,40.693,39.263,41,38.758,41h-4.776l3.128-1.469l0.826-2.46c0.11-0.327-0.045-0.635-0.283-0.885c-0.957-1.011-4.002-3.668-5.151-6.444C30.569,25.068,43.826,17.088,48,24.392z"/><polygon fill="#5d4037" points="4.176,18.002 2.09,18.002 2.409,19.045"/><path fill="#8d6e63" d="M0.055,14.63l0.493,1.631c0.367-0.368,0.543-0.686,0.622-1.309c0.076-0.558,0.064-1.053,0.399-1.548l-1.372-0.303C-0.09,13.771,0.001,14.359,0.055,14.63z"/><path fill="#5d4037" d="M7.307,11.741c0.659,0.694,1.496,0.675,2.087,0C8.671,10.987,8.041,11.062,7.307,11.741z"/><path fill="#8d6e63" d="M22.617,33.021L34,33c0,0-2-3-7-3S22.617,33.021,22.617,33.021z"/></svg>