<svg xmlns="http://www.w3.org/2000/svg" width="80.073" height="79" viewBox="0 0 80.073 79"><g transform="translate(-1545 -427)"><g transform="translate(1546 427)" fill="#072144"><path d="M 63.67164611816406 77.5 L 15.32835578918457 77.5 C 11.63466644287109 77.5 8.162066459655762 76.06159973144531 5.550233364105225 73.44976806640625 C 2.938400030136108 70.83793640136719 1.5 67.36533355712891 1.5 63.67164611816406 L 1.5 15.32835578918457 C 1.5 11.63466644287109 2.938400030136108 8.162066459655762 5.550233364105225 5.550233364105225 C 8.162066459655762 2.938400030136108 11.63466644287109 1.5 15.32835578918457 1.5 L 63.67164611816406 1.5 C 67.36533355712891 1.5 70.83793640136719 2.938400030136108 73.44976806640625 5.550233364105225 C 76.06159973144531 8.162066459655762 77.5 11.63466644287109 77.5 15.32835578918457 L 77.5 63.67164611816406 C 77.5 67.36533355712891 76.06159973144531 70.83794403076172 73.44976806640625 73.44976806640625 C 70.83794403076172 76.06159973144531 67.36533355712891 77.5 63.67164611816406 77.5 Z" stroke="none"/><path d="M 15.32836151123047 3 C 12.03533935546875 3 8.939414978027344 4.282371520996094 6.610885620117188 6.610885620117188 C 4.282371520996094 8.939414978027344 3 12.03533935546875 3 15.32836151123047 L 3 63.67163848876953 C 3 66.96466064453125 4.282371520996094 70.06058502197266 6.610885620117188 72.38911437988281 C 8.939414978027344 74.71762847900391 12.03533935546875 76 15.32836151123047 76 L 63.67163848876953 76 C 66.96466064453125 76 70.06058502197266 74.71762847900391 72.38911437988281 72.38911437988281 C 74.71762847900391 70.06058502197266 76 66.96466064453125 76 63.67163848876953 L 76 15.32836151123047 C 76 12.03533935546875 74.71762847900391 8.939414978027344 72.38911437988281 6.610885620117188 C 70.06058502197266 4.282371520996094 66.96466064453125 3 63.67163848876953 3 L 15.32836151123047 3 M 15.32836151123047 0 L 63.67163848876953 0 C 72.13726043701172 0 79 6.862739562988281 79 15.32836151123047 L 79 63.67163848876953 C 79 72.13726043701172 72.13726043701172 79 63.67163848876953 79 L 15.32836151123047 79 C 6.862739562988281 79 0 72.13726043701172 0 63.67163848876953 L 0 15.32836151123047 C 0 6.862739562988281 6.862739562988281 0 15.32836151123047 0 Z" stroke="none" fill="#dae028"/></g><g transform="translate(-5117 -2054.343)"><g transform="translate(6662 2529.427) rotate(-36)"><text transform="translate(0 26)" fill="#dae028" font-size="28" font-family="SansMateo, Sans Mateo"><tspan x="0" y="0">Exp-JS</tspan></text></g></g></g></svg>