<svg xmlns="http://www.w3.org/2000/svg" width="48.684" height="53.767" viewBox="0 0 48.684 53.767"><g transform="translate(0 0)"><path d="M50.855,31.666a5.006,5.006,0,0,0-5.531-4.977L52.2,6.416H22.987l6.864,20.256c-.1-.006-.2-.01-.3-.01a5.005,5.005,0,0,0-1.52,9.774,21.861,21.861,0,0,1-3.935,4.953,20.038,20.038,0,0,1-7.013,4.353,6.38,6.38,0,0,1-3.2-8.122c.147-.346.3-.7.441-1.045A5.005,5.005,0,1,0,10.31,35.8c-1.239,2.82-3.059,5.772-3.627,9.193-.68,4.1,0,8.451,3.544,10.909,8.258,5.723,17.222-3.548,26.673-5.879,3.425-.845,7.185-.709,10.2-2.456a8.545,8.545,0,0,0,4.184-5.93,8.906,8.906,0,0,0-1.6-6.762,4.983,4.983,0,0,0,1.164-3.208" transform="translate(-5.219 -5.193)" fill="#99425b"/><path d="M44.864,36.234a7.337,7.337,0,0,1-3.593,5.081,17.089,17.089,0,0,1-6.189,1.669c-1.214.175-2.468.356-3.694.658a47.216,47.216,0,0,0-9.415,3.866C15.9,50.526,10.651,53.132,5.7,49.7,2.08,47.192,2.247,42.545,2.67,40a24.617,24.617,0,0,1,2.472-6.633c.177-.363.35-.72.518-1.073a6.185,6.185,0,0,0,1.608.4A7.612,7.612,0,0,0,11.3,41.635l.47.242.5-.177a21.18,21.18,0,0,0,7.442-4.616A23.208,23.208,0,0,0,23.4,32.63,6.227,6.227,0,0,0,30.5,27.3c1.291-.047,2.663-.048,3.961,0a6.221,6.221,0,0,0,9.721,4.289A7.6,7.6,0,0,1,44.864,36.234ZM7.963,22.726a3.782,3.782,0,0,1,.26,7.555c-.086.006-.172.01-.26.01a3.782,3.782,0,0,1,0-7.565Zm12.583,3.746a3.782,3.782,0,1,1,4.164,3.763q-.188.019-.382.019a3.787,3.787,0,0,1-3.782-3.782Zm15.786-4.5a6.234,6.234,0,0,0-1.713,2.88c-1.4-.053-2.886-.053-4.278,0a6.24,6.24,0,0,0-1.876-3.03l3.914-7.914ZM19.473,2.445h25.8L39.18,20.418a6.2,6.2,0,0,0-.772.239l-6.02-12.28L26.351,20.584a6.215,6.215,0,0,0-.805-.217ZM44.414,26.473a3.78,3.78,0,1,1-3.782-3.782c.119,0,.237.006.354.017A3.787,3.787,0,0,1,44.414,26.473Zm2.445,0a6.236,6.236,0,0,0-5.075-6.118L48.684,0H16.063l6.912,20.4a6.224,6.224,0,0,0-1.93,11.365,20.87,20.87,0,0,1-3.01,3.545,18.876,18.876,0,0,1-6.068,3.9,5.1,5.1,0,0,1-2.178-6.3l.076-.179.143-.336a6.231,6.231,0,1,0-6.413-1.448c-.208.443-.427.893-.651,1.354A26.876,26.876,0,0,0,.258,39.6c-.892,5.382.547,9.684,4.053,12.114a11.044,11.044,0,0,0,6.462,2.054c4.094,0,8.236-2.057,12.286-4.069a45.456,45.456,0,0,1,8.913-3.682c1.109-.273,2.249-.438,3.457-.612A19.16,19.16,0,0,0,42.5,43.431a9.775,9.775,0,0,0,4.776-6.778,10.092,10.092,0,0,0-1.326-6.939A6.19,6.19,0,0,0,46.858,26.473Z" transform="translate(0)" fill="#fff"/></g></svg>