<svg xmlns="http://www.w3.org/2000/svg" width="36.937" height="40.011" viewBox="0 0 36.937 40.011"><path d="M23.084,11.277A15.133,15.133,0,0,1,21.021,4.21c-4.148.9-8.269,2.506-8.031,3.691.03.149.218.328.53.5l-.488.873A1.815,1.815,0,0,1,12.01,8.1c-.269-1.341,1.25-2.554,4.642-3.709A42.152,42.152,0,0,1,21.4,3.109l.6-.12V3.6c0,.042.026,4.288,1.916,7.123Z" transform="translate(-5.998 -2.989)" fill="#cfd8dc"/><path d="M24.751,43H24.5c-8.192,0-17.309-2.573-18.386-6.879-.657-2.63,1.492-5.536,6.214-8.4l.52.854c-4.249,2.579-6.3,5.172-5.763,7.305C8.02,39.617,16.66,41.947,24.238,42a25.292,25.292,0,0,0,2.979-19.873l.967-.252A26.186,26.186,0,0,1,24.9,42.8Z" transform="translate(-5.998 -2.989)" fill="#cfd8dc"/><path d="M9.931,39.306a3.833,3.833,0,0,1-.85-.07.5.5,0,0,1-.233-.84c.072-.072,7.2-7.208,8.159-12.978l.986.164c-.827,4.964-5.715,10.623-7.656,12.707,1.939-.111,6.835-1.019,16.234-6.28-7.335-.8-8.495-6.676-8.507-6.739l.983-.181c.047.246,1.226,6.011,9.244,6.011H28.3a.5.5,0,0,1,.251.933C17.315,38.542,11.867,39.305,9.931,39.306Z" transform="translate(-5.998 -2.989)" fill="#cfd8dc"/><path d="M14.524,41.7a.5.5,0,0,1-.291-.907,17.253,17.253,0,0,0,3.706-4.228,19.9,19.9,0,0,1-2.2-1.137,8.272,8.272,0,0,1-2.06-1.691,20.962,20.962,0,0,1-7.025.769l.084-1a19.607,19.607,0,0,0,6.321-.64,5.8,5.8,0,0,1-.109-5.392l.874.487a4.619,4.619,0,0,0,.249,4.633,41.2,41.2,0,0,0,6.979-2.782,32.189,32.189,0,0,0,1.225-6.276.5.5,0,0,1,.706-.406c.032.015,3.264,1.491,5.6,2.454a.5.5,0,0,1,.091.876A62.494,62.494,0,0,1,21.9,30.506,27.19,27.19,0,0,1,19.445,36.1,22.323,22.323,0,0,0,26.4,37.5a.5.5,0,0,1,.243.938C22.1,40.961,14.877,41.671,14.572,41.7,14.556,41.7,14.54,41.7,14.524,41.7Zm4.385-4.733a20.938,20.938,0,0,1-2.826,3.53,38.087,38.087,0,0,0,8.408-2.139A23.733,23.733,0,0,1,18.909,36.967Zm-4.142-3.536a7.745,7.745,0,0,0,1.49,1.14,18.707,18.707,0,0,0,2.22,1.135,26.116,26.116,0,0,0,2.142-4.568A41.675,41.675,0,0,1,14.767,33.431Zm8.435-9.1a33.949,33.949,0,0,1-.913,4.85c1.66-.885,3.354-1.9,5.062-3.026C25.8,25.5,24.1,24.734,23.2,24.329Z" transform="translate(-5.998 -2.989)" fill="#cfd8dc"/><path d="M17.924,10.6a.5.5,0,0,1-.325-.12,26.462,26.462,0,0,1-3.585-4.3.5.5,0,0,1,.654-.718,53.56,53.56,0,0,0,7.217,1.431.5.5,0,0,1,.29.828A11.63,11.63,0,0,1,18.1,10.568.527.527,0,0,1,17.924,10.6ZM15.647,6.746a21.96,21.96,0,0,0,2.372,2.769,11.186,11.186,0,0,0,2.744-1.8C18.18,7.276,16.6,6.962,15.647,6.746Z" transform="translate(-5.998 -2.989)" fill="#cfd8dc"/><path d="M21.843,24.4a.5.5,0,0,1-.5-.552C21.638,21.1,17.42,20,17.377,19.986a.5.5,0,0,1-.23-.838,41.562,41.562,0,0,1,11.327-7.784.5.5,0,0,1,.689.559c-1.186,5.744-6.71,12.044-6.944,12.309A.51.51,0,0,1,21.843,24.4Zm-3.388-5.115c1.184.445,3.258,1.475,3.783,3.356,1.449-1.808,4.542-5.973,5.7-9.934A41.882,41.882,0,0,0,18.455,19.285Z" transform="translate(-5.998 -2.989)" fill="#b71c1c"/><path d="M13.079,28.36l-.475-.88a20.925,20.925,0,0,0,5.807-5.054c-1.5,1.03-2.365,1.735-2.392,1.758l-.639-.77a46.227,46.227,0,0,1,4.631-3.22,13.682,13.682,0,0,0,1.7-3.816c.053-.212.1-.417.136-.615a26.6,26.6,0,0,0-4.921-1.269.5.5,0,0,1-.3-.835A17.263,17.263,0,0,1,21.286,10.2a.5.5,0,0,1,.581.114c.067.073,1.44,1.615,1.091,4.8a26.793,26.793,0,0,1,3.491,1.648,43.9,43.9,0,0,1,9.229-3.03.509.509,0,0,1,.481.168.5.5,0,0,1,.083.5c-1.3,3.332-4.786,6.891-4.934,7.041a.509.509,0,0,1-.383.148.5.5,0,0,1-.365-.188A15.446,15.446,0,0,0,26.4,17.882a55.136,55.136,0,0,0-5.684,3.049A23.153,23.153,0,0,1,13.079,28.36ZM27.492,17.4a16.4,16.4,0,0,1,3.484,2.948,26.524,26.524,0,0,0,3.942-5.422A43.266,43.266,0,0,0,27.492,17.4ZM22.8,16.122q-.05.245-.113.5a12.765,12.765,0,0,1-.972,2.561c1.1-.626,2.309-1.272,3.618-1.9A25.475,25.475,0,0,0,22.8,16.122Zm-4.751-2.45a29.114,29.114,0,0,1,3.941,1.086,5.747,5.747,0,0,0-.647-3.472A16.088,16.088,0,0,0,18.048,13.672Z" transform="translate(-5.998 -2.989)" fill="#b71c1c"/><path d="M18.05,18.5c0,4.38-3.65,7.86-6.28,10.4a4.219,4.219,0,0,1-1.93.5c.37-.38.79-.78,1.24-1.21,2.5-2.42,5.97-5.73,5.97-9.69a9.765,9.765,0,0,0-3.38-8.02,7.09,7.09,0,0,1-1.56-2.09l.31-.13c.34.15.73.32,1.03.45a7.835,7.835,0,0,0,.93,1.06A10.782,10.782,0,0,1,18.05,18.5Z" transform="translate(-5.998 -2.989)" fill="#b71c1c"/><path d="M42.935,19.794s-.6.086-.775.106a96.63,96.63,0,0,0-22.97,5.56,44.608,44.608,0,0,0-5.58,2.68c-.01.01-.02.01-.04.02-1.04.6-3.57,1.84-5.62,2.93,3-3.19,8.62-5.65,10.86-6.55a97.9,97.9,0,0,1,22.35-5.53,20.166,20.166,0,0,0-8.34-5.54c-2.84-1.1-7.16-1.72-10.97-2.27-6.06-.87-9.51-1.45-9.84-3.1a1.526,1.526,0,0,1,.13-.98,4.027,4.027,0,0,0,1.11,1.14,3.115,3.115,0,0,0,.3.18l.01.01c1.42.75,5.25,1.3,8.44,1.76,3.86.56,8.23,1.19,11.18,2.32,6.87,2.65,9.24,6.44,9.34,6.6S42.935,19.794,42.935,19.794Z" transform="translate(-5.998 -2.989)" fill="#b71c1c"/></svg>