<svg xmlns="http://www.w3.org/2000/svg" width="36" height="40" viewBox="0 0 36 40"><path d="M42,17.3C42,37.8,24,44,24,44S6,37.8,6,17.3A52.657,52.657,0,0,1,6.4,11a5.872,5.872,0,0,1,4.4-5.1A49.447,49.447,0,0,1,24,4,50.935,50.935,0,0,1,37.3,5.9,5.986,5.986,0,0,1,41.7,11C41.8,12.7,42,14.9,42,17.3Z" transform="translate(-6 -4)" fill="#5d4037"/><path d="M24,7A49.683,49.683,0,0,1,36.5,8.8a3.006,3.006,0,0,1,2.2,2.6,56.829,56.829,0,0,1,.3,5.9A24.888,24.888,0,0,1,24,40.7,25.149,25.149,0,0,1,9,17.3a56.829,56.829,0,0,1,.3-5.9,2.881,2.881,0,0,1,2.2-2.6A49.683,49.683,0,0,1,24,7m0-3A50.935,50.935,0,0,0,10.7,5.9,5.882,5.882,0,0,0,6.4,11,54.135,54.135,0,0,0,6,17.3C6,37.8,24,44,24,44s18-6.2,18-26.7a52.657,52.657,0,0,0-.4-6.3,5.872,5.872,0,0,0-4.4-5.1A49.447,49.447,0,0,0,24,4Z" transform="translate(-6 -4)" fill="#4caf50"/><path d="M23,28h2v8H23Z" transform="translate(-6 -4)" fill="#dcedc8"/><path d="M24,10s-6,5-6,13c0,5.2,3.3,8.5,5,10l1-3,1,3c1.7-1.5,5-4.8,5-10C30,15,24,10,24,10Z" transform="translate(-6 -4)" fill="#4caf50"/><path d="M24,10s-6,5-6,13c0,5.2,3.3,8.5,5,10l1-3Z" transform="translate(-6 -4)" fill="#81c784"/></svg>