<svg xmlns="http://www.w3.org/2000/svg" width="35.999" height="36" viewBox="0 0 35.999 36"><path d="M37,37a27.185,27.185,0,0,0-5.318-4.3c-3.721-2.368-4.5-3.886-4.5-3.886a6.97,6.97,0,0,1,3.96-2.158,14.735,14.735,0,0,0-4.87-3.034l-.9-.291-.2-.925A32.6,32.6,0,0,0,19.954,11a12.669,12.669,0,0,0-6.061-4.387,14.4,14.4,0,0,0-4.526-.7l-.56-.02-.283-.124c-.08-.036-.231-.115-.437-.227a8.875,8.875,0,0,0-3.61-1.271l0,.007-.185.128c-.016.45.542,1.152.841,1.528.154.193.29.365.393.514l.206.272A8.924,8.924,0,0,1,6.8,8.367a7.775,7.775,0,0,1,.27.844,14.955,14.955,0,0,0,1.173,3.181c.483.828,1.306,2.021,1.312,2.032l.4.584-.154.694a27.83,27.83,0,0,0-.627,4.115,6.994,6.994,0,0,0,.435,2.633,11.976,11.976,0,0,1,2.168-3.618C12.863,23.3,19,30.455,19,30.455a16.921,16.921,0,0,1-6.64-5.073,1.9,1.9,0,0,1-1.951,1.8c-1.766,0-2.81-1.636-3.152-2.173a9.473,9.473,0,0,1-1.348-5.191,25.961,25.961,0,0,1,.558-4.124c-.311-.466-.743-1.127-1.051-1.654a17.559,17.559,0,0,1-1.5-3.952c-.056-.2-.1-.357-.129-.447a8.2,8.2,0,0,0-.658-.933l-.265-.35c-.1-.139-.191-.255-.295-.385A5.821,5.821,0,0,1,1,4.474a3.46,3.46,0,0,1,.267-1.325A3.326,3.326,0,0,1,4.477,1,11.407,11.407,0,0,1,9.61,2.646a16.762,16.762,0,0,1,5.5.925A15.967,15.967,0,0,1,22.547,9,35.092,35.092,0,0,1,28.16,20.851a17.833,17.833,0,0,1,7.3,5.783L36.951,28.7a30.241,30.241,0,0,0-4.363.954A40.6,40.6,0,0,1,37,37Z" transform="translate(-1.001 -1)" fill="#44cdec"/><path d="M29.71,28.658,32,27.927c.675-.217,1.39-.4,2.057-.548a16.634,16.634,0,0,0-6.715-5.293l-.75-.32-.208-.79A33.975,33.975,0,0,0,20.958,9.5a14.556,14.556,0,0,0-6.875-5,15.559,15.559,0,0,0-5.022-.823l-.405-.01-.357-.2A10.267,10.267,0,0,0,3.874,2,1.723,1.723,0,0,0,2.149,3.15,1.92,1.92,0,0,0,2,3.877,4.522,4.522,0,0,0,3.236,6.4c.157.2.257.325.362.475l.235.308a7.789,7.789,0,0,1,.843,1.232l.073.18c.033.093.075.242.127.427a17.113,17.113,0,0,0,1.4,3.758c.3.51.715,1.147,1.017,1.6l.383.575-.137.678A23.6,23.6,0,0,0,7,19.5a7.975,7.975,0,0,0,1.125,4.413c.382.6,1,1.42,1.792,1.42.17,0,.262,0,.347-.465l.667-3.68,2.29,2.957a51.437,51.437,0,0,0,5.447,6.188,28.12,28.12,0,0,0,6.412,2.5C28.437,33.795,32.417,34.5,37,37a68.5,68.5,0,0,0-5.8-6.455C30.78,30.115,29.71,28.658,29.71,28.658Z" transform="translate(-1.001 -1)" fill="#4caf50" opacity="0.3"/><path d="M7.187,5a4.319,4.319,0,0,0-.937.125L7.625,7A1.987,1.987,0,0,0,8,5.917,1.79,1.79,0,0,0,7.187,5" transform="translate(2.628 1.8)" fill="#5b5b5b" fill-rule="evenodd"/></svg>