<svg xmlns="http://www.w3.org/2000/svg" width="38" height="42.839" viewBox="0 0 38 42.839"><g transform="translate(0 0)"><path d="M24.007,45.419a3.3,3.3,0,0,1-1.646-.44l-5.24-3.1c-.783-.438-.4-.593-.143-.682a10.539,10.539,0,0,0,2.369-1.081.4.4,0,0,1,.39.028l4.026,2.389a.528.528,0,0,0,.486,0l15.7-9.061a.5.5,0,0,0,.24-.424V14.932a.5.5,0,0,0-.243-.432L24.253,5.446a.484.484,0,0,0-.483,0L8.082,14.5a.5.5,0,0,0-.249.428V33.041a.481.481,0,0,0,.244.42l4.3,2.483c2.334,1.167,3.76-.208,3.76-1.591V16.476a.448.448,0,0,1,.456-.452H18.58a.449.449,0,0,1,.452.452V34.362c0,3.112-1.7,4.9-4.648,4.9a6.73,6.73,0,0,1-3.619-.982L6.647,35.907A3.322,3.322,0,0,1,5,33.042V14.928a3.3,3.3,0,0,1,1.646-2.861L22.36,3a3.442,3.442,0,0,1,3.3,0l15.694,9.069A3.314,3.314,0,0,1,43,14.932V33.046a3.324,3.324,0,0,1-1.646,2.861L25.66,44.971a3.3,3.3,0,0,1-1.654.44" transform="translate(-5 -2.581)" fill="#21a366"/><path d="M28.856,32.937c-6.868,0-8.308-3.153-8.308-5.8A.452.452,0,0,1,21,26.688h2.028a.454.454,0,0,1,.448.384c.306,2.066,1.218,3.108,5.371,3.108,3.308,0,4.715-.747,4.715-2.5,0-1.01-.4-1.76-5.54-2.263-4.3-.424-6.955-1.371-6.955-4.809,0-3.167,2.672-5.053,7.147-5.053,5.026,0,7.517,1.745,7.831,5.493a.456.456,0,0,1-.122.35.467.467,0,0,1-.334.145H33.553a.45.45,0,0,1-.44-.354c-.491-2.173-1.678-2.868-4.9-2.868-3.611,0-4.031,1.257-4.031,2.2,0,1.143.5,1.477,5.367,2.122,4.825.64,7.116,1.544,7.116,4.935,0,3.418-2.853,5.379-7.827,5.379" transform="translate(-5 -2.581)" fill="#21a366"/></g></svg>