<svg xmlns="http://www.w3.org/2000/svg" width="36.526" height="32.733" viewBox="0 0 36.526 32.733"><g transform="translate(-268 -1612)"><circle cx="3" cy="3" r="3" transform="translate(284 1625)" fill="#39c1d7"/><g transform="translate(268 1612)"><path d="M48.026,31.864c0-2.55-3.071-4.757-7.835-6.071,1.225-4.789.848-8.555-1.341-9.833a3.964,3.964,0,0,0-3.113-.275,14.647,14.647,0,0,0-5.974,3.984,14.652,14.652,0,0,0-5.974-3.984,3.962,3.962,0,0,0-3.113.275c-2.189,1.278-2.566,5.043-1.341,9.833-4.764,1.313-7.835,3.521-7.835,6.071s3.071,4.757,7.835,6.071c-1.225,4.789-.848,8.555,1.341,9.833a3.47,3.47,0,0,0,1.782.463,5.156,5.156,0,0,0,1.331-.188,14.652,14.652,0,0,0,5.974-3.984,14.652,14.652,0,0,0,5.974,3.984,5.156,5.156,0,0,0,1.331.188,3.47,3.47,0,0,0,1.782-.463c2.189-1.278,2.565-5.044,1.341-9.833C44.955,36.622,48.026,34.414,48.026,31.864ZM36.1,17.06a3.737,3.737,0,0,1,.956-.138,2.086,2.086,0,0,1,1.071.267c1.467.857,1.766,3.994.674,8.259a37.9,37.9,0,0,0-4.893-.751,38.618,38.618,0,0,0-3.163-4A13.337,13.337,0,0,1,36.1,17.06Zm-1.24,17.792c-.559.98-1.148,1.919-1.752,2.817-1.072.08-2.19.124-3.35.124s-2.278-.044-3.349-.124c-.6-.9-1.193-1.837-1.752-2.817q-.867-1.52-1.562-2.988.7-1.464,1.562-2.988c.56-.981,1.148-1.919,1.752-2.818,1.072-.08,2.189-.124,3.349-.124s2.277.044,3.349.124c.6.9,1.193,1.838,1.752,2.818q.867,1.52,1.562,2.988Q35.729,33.329,34.865,34.852Zm2.319-1.306a35.7,35.7,0,0,1,1.232,3.359,35.271,35.271,0,0,1-3.488.59c.4-.629.793-1.272,1.173-1.938S36.844,34.213,37.184,33.546ZM29.763,42a36.448,36.448,0,0,1-2.307-2.836c.755.037,1.524.058,2.307.058s1.552-.021,2.307-.058C31.314,40.186,30.539,41.137,29.763,42Zm-5.165-4.5a35.3,35.3,0,0,1-3.488-.59,35.647,35.647,0,0,1,1.232-3.359q.509,1,1.083,2.011C23.805,36.223,24.2,36.866,24.6,37.495Zm-2.256-7.312a35.529,35.529,0,0,1-1.232-3.36,35.282,35.282,0,0,1,3.489-.59c-.4.629-.793,1.273-1.173,1.938S22.682,29.516,22.342,30.183Zm7.421-8.449A36.448,36.448,0,0,1,32.07,24.57c-.755-.037-1.524-.058-2.307-.058s-1.552.021-2.307.058A36.527,36.527,0,0,1,29.763,21.734ZM36.1,28.172c-.38-.666-.774-1.309-1.173-1.938a35.3,35.3,0,0,1,3.489.59,35.711,35.711,0,0,1-1.232,3.36C36.844,29.516,36.485,28.845,36.1,28.172ZM21.394,17.189a2.087,2.087,0,0,1,1.071-.267,3.737,3.737,0,0,1,.956.138A13.335,13.335,0,0,1,28.776,20.7a38.668,38.668,0,0,0-3.163,4,37.883,37.883,0,0,0-4.893.751C19.628,21.183,19.927,18.045,21.394,17.189ZM12.923,31.864c0-1.706,2.562-3.529,6.8-4.7a38.307,38.307,0,0,0,1.805,4.7,38.307,38.307,0,0,0-1.805,4.7C15.485,35.394,12.923,33.57,12.923,31.864Zm10.5,14.8a2.618,2.618,0,0,1-2.027-.129c-1.467-.857-1.766-3.994-.674-8.259a37.888,37.888,0,0,0,4.892.751,38.676,38.676,0,0,0,3.163,4A13.334,13.334,0,0,1,23.421,46.669Zm14.71-.129a2.612,2.612,0,0,1-2.027.129,13.335,13.335,0,0,1-5.355-3.638,38.625,38.625,0,0,0,3.163-4,37.875,37.875,0,0,0,4.892-.751C39.9,42.546,39.6,45.683,38.131,46.54ZM39.8,36.561A38.306,38.306,0,0,0,38,31.864a38.335,38.335,0,0,0,1.805-4.7c4.238,1.167,6.8,2.991,6.8,4.7S44.041,35.394,39.8,36.561Z" transform="translate(-11.5 -15.498)" fill="#39c1d7"/></g></g></svg>