<svg xmlns="http://www.w3.org/2000/svg" width="44.208" height="42.139" viewBox="0 0 44.208 42.139"><path d="M23.643,4C16.671,4,11,11.66,11,21.073A19.968,19.968,0,0,0,15.3,33.86a3.232,3.232,0,1,0,2.134-2.306,17.161,17.161,0,0,1-3.269-10.48c0-7.671,4.253-13.913,9.482-13.913,4.043,0,7.492,3.737,8.854,8.974a25.267,25.267,0,0,1,3.508,1.378C34.789,9.8,29.711,4,23.643,4Z" transform="translate(-2.593 -4)" fill="#7e57c2"/><path d="M36.445,20.3A20.491,20.491,0,0,0,23.61,17.185a3.153,3.153,0,1,0,.489,3.122,17.311,17.311,0,0,1,10.708,2.7c6.746,4.089,10.188,11.135,7.672,15.71a6.9,6.9,0,0,1-4.444,3.256,14.306,14.306,0,0,1-8.141-.556A25.821,25.821,0,0,1,27.023,43.7a20.389,20.389,0,0,0,8.08,1.8,14.517,14.517,0,0,0,3.75-.471,9.976,9.976,0,0,0,6.4-4.785C48.571,34.2,44.621,25.258,36.445,20.3Z" transform="translate(-2.218 -3.357)" fill="#7e57c2"/><path d="M36.714,29.313a3.161,3.161,0,0,0-6.322,0,3.12,3.12,0,0,0,.632,1.874,18.894,18.894,0,0,1-7.44,7.984c-4.072,2.47-8.624,3.374-12.174,2.425a6.9,6.9,0,0,1-4.444-3.256c-1.793-3.26-.549-7.771,2.75-11.577A24.169,24.169,0,0,1,8.972,23C3.63,28.052,1.482,34.928,4.2,39.865a9.976,9.976,0,0,0,6.4,4.785,14.512,14.512,0,0,0,3.75.471,21.418,21.418,0,0,0,10.879-3.245,21.871,21.871,0,0,0,8.649-9.442A3.145,3.145,0,0,0,36.714,29.313Z" transform="translate(-3.021 -2.982)" fill="#7e57c2"/></svg>