<svg xmlns="http://www.w3.org/2000/svg" xmlns:xlink="http://www.w3.org/1999/xlink" width="53" height="53" viewBox="0 0 53 53"><defs><linearGradient id="a" x1="0.454" y1="-0.047" x2="0.537" y2="0.936" gradientUnits="objectBoundingBox"><stop offset="0" stop-color="#00c1e0"/><stop offset="1" stop-color="#009bb8"/></linearGradient></defs><g transform="translate(-1469 -371)"><g transform="translate(1469 371)" fill="#072144" stroke="#00b4d3" stroke-width="3"><rect width="53" height="53" rx="13" stroke="none"/><rect x="1.5" y="1.5" width="50" height="50" rx="11.5" fill="none"/></g><g transform="translate(-5111.815 -2334.896)"><path d="M24,9.6q-8.384,0-11.276,7.318a.5.5,0,0,0,.816.551A7.062,7.062,0,0,1,20.4,15.6c1.826.456,3.131,1.781,4.576,3.247C27.328,21.236,30.051,24,36,24q8.384,0,11.276-7.319a.5.5,0,0,0-.816-.551A7.063,7.063,0,0,1,39.6,18c-1.825-.456-3.13-1.781-4.575-3.247C32.672,12.367,29.948,9.6,24,9.6ZM12,24Q3.616,24,.724,31.319a.5.5,0,0,0,.816.551A7.06,7.06,0,0,1,8.4,30c1.825.457,3.13,1.781,4.575,3.246C15.328,35.633,18.052,38.4,24,38.4q8.384,0,11.276-7.319a.5.5,0,0,0-.816-.551A7.06,7.06,0,0,1,27.6,32.4c-1.826-.456-3.131-1.781-4.576-3.246C20.672,26.764,17.949,24,12,24Z" transform="translate(6583.315 2708.396)" fill="url(#a)"/></g></g></svg>