<svg xmlns="http://www.w3.org/2000/svg" width="53" height="53" viewBox="0 0 53 53"><g transform="translate(-1243 -410)"><g transform="translate(1243 410)" fill="#072144" stroke="#39c1d7" stroke-width="3"><rect width="53" height="53" rx="13" stroke="none"/><rect x="1.5" y="1.5" width="50" height="50" rx="11.5" fill="none"/></g><g transform="translate(1248.237 417.133)"><path d="M54.026,34.864c0-3.018-3.575-5.629-9.123-7.184,1.426-5.667.987-10.123-1.561-11.635a4.549,4.549,0,0,0-3.624-.325c-2.109.574-4.525,2.251-6.955,4.714-2.43-2.464-4.846-4.14-6.955-4.714a4.547,4.547,0,0,0-3.624.325c-2.548,1.512-2.987,5.968-1.561,11.635-5.547,1.554-9.123,4.166-9.123,7.184s3.575,5.629,9.123,7.184c-1.426,5.667-.987,10.123,1.561,11.635a3.989,3.989,0,0,0,2.074.547,5.912,5.912,0,0,0,1.55-.222c2.109-.574,4.525-2.251,6.955-4.714,2.43,2.464,4.846,4.14,6.955,4.714a5.912,5.912,0,0,0,1.55.222,3.989,3.989,0,0,0,2.074-.547c2.548-1.512,2.987-5.968,1.561-11.635C50.45,40.494,54.026,37.882,54.026,34.864ZM40.146,17.346a4.285,4.285,0,0,1,1.113-.163,2.4,2.4,0,0,1,1.246.316c1.708,1.014,2.056,4.726.784,9.773a43.462,43.462,0,0,0-5.7-.889,45.589,45.589,0,0,0-3.683-4.731C36.131,19.392,38.308,17.847,40.146,17.346ZM38.7,38.4c-.651,1.16-1.337,2.27-2.04,3.334-1.248.095-2.549.147-3.9.147s-2.652-.052-3.9-.147c-.7-1.063-1.388-2.174-2.04-3.334Q25.814,36.6,25,34.865q.812-1.733,1.819-3.536c.652-1.16,1.337-2.271,2.04-3.334,1.248-.095,2.548-.147,3.9-.147s2.652.052,3.9.147c.7,1.063,1.388,2.175,2.04,3.334q1.01,1.8,1.819,3.536Q39.709,36.6,38.7,38.4Zm2.7-1.546c.575,1.381,1.05,2.711,1.434,3.975a40.461,40.461,0,0,1-4.061.7c.465-.744.923-1.505,1.366-2.293S41.007,37.643,41.4,36.854Zm-8.64,10c-.9-1.015-1.805-2.14-2.686-3.356.879.043,1.774.068,2.686.068s1.807-.025,2.686-.068C34.568,44.712,33.666,45.836,32.763,46.852ZM26.75,41.527a40.488,40.488,0,0,1-4.061-.7c.384-1.264.859-2.594,1.434-3.975q.593,1.184,1.261,2.38C25.827,40.022,26.285,40.783,26.75,41.527Zm-2.627-8.652c-.575-1.381-1.05-2.712-1.434-3.976a40.473,40.473,0,0,1,4.062-.7c-.466.744-.923,1.506-1.366,2.294S24.518,32.086,24.123,32.875Zm8.64-10c.9,1.015,1.805,2.14,2.686,3.356-.879-.044-1.774-.069-2.686-.069s-1.807.025-2.686.068C30.957,25.017,31.859,23.892,32.763,22.877ZM40.141,30.5c-.442-.788-.9-1.549-1.366-2.294a40.5,40.5,0,0,1,4.062.7c-.384,1.265-.859,2.594-1.434,3.976C41.007,32.086,40.589,31.292,40.141,30.5Zm-17.122-13a2.4,2.4,0,0,1,1.247-.316,4.285,4.285,0,0,1,1.113.163c1.839.5,4.016,2.045,6.235,4.305a45.648,45.648,0,0,0-3.683,4.731,43.448,43.448,0,0,0-5.7.889C20.963,22.225,21.312,18.512,23.019,17.5ZM13.157,34.864c0-2.018,2.983-4.176,7.917-5.558a45.785,45.785,0,0,0,2.1,5.558,45.786,45.786,0,0,0-2.1,5.558C16.14,39.04,13.157,36.883,13.157,34.864ZM25.379,52.382a3,3,0,0,1-2.36-.152c-1.708-1.014-2.056-4.726-.784-9.773a43.453,43.453,0,0,0,5.7.889,45.657,45.657,0,0,0,3.683,4.732C29.4,50.337,27.218,51.882,25.379,52.382Zm17.127-.152a3,3,0,0,1-2.36.152c-1.839-.5-4.016-2.045-6.235-4.305a45.6,45.6,0,0,0,3.683-4.732,43.439,43.439,0,0,0,5.7-.889C44.562,47.5,44.214,51.216,42.506,52.23Zm1.946-11.808a45.785,45.785,0,0,0-2.1-5.558,45.819,45.819,0,0,0,2.1-5.558c4.934,1.381,7.917,3.539,7.917,5.558S49.386,39.04,44.452,40.422Z" transform="translate(-11.5 -15.498)" fill="#39c1d7"/></g></g></svg>