<svg xmlns="http://www.w3.org/2000/svg" width="48.685" height="48.685" viewBox="0 0 48.685 48.685"><path d="M197.812,193.023,190.5,206.185l4.913-12.974.075-.2Zm0,0" transform="translate(-166.348 -168.541)" fill="#ff496c"/><path d="M181.049,199.98l-.015.119-1.589,12.17-1.59-12.17-.015-.119h1.605" transform="translate(-155.293 -174.626)" fill="#ff496c"/><path d="M135.219,193.211l4.914,12.974-7.313-13.161,2.324-.011Zm0,0" transform="translate(-115.981 -168.541)" fill="#ff496c"/><path d="M95.3,167.32l.055.114-4.046-.689-1.326-3.233,3.749.679.031,0L95.3,167.32" transform="translate(-78.579 -142.781)" fill="#ff496c"/><path d="M153.693,169.469l1.581,4-3.2-.832" transform="translate(-132.797 -147.983)" fill="#ff496c"/><path d="M205.28,169.469l1.615,3.167-3.2.832" transform="translate(-177.873 -147.983)" fill="#ff496c"/><path d="M254,163.512l-1.326,3.233-4.046.689.056-.114h0l1.536-3.124.03,0" transform="translate(-217.107 -142.781)" fill="#ff496c"/><path d="M219.181,107.9l3.332,7.487-5.6.007h0l.743-7.507h1.528" transform="translate(-189.409 -94.212)" fill="#ff496c"/><path d="M164.078,115.4l3.35-7.507,3.348,7.507h-.094l-3.255,0-3.256,0h-.094" transform="translate(-143.276 -94.212)" fill="#ff496c"/><path d="M125.493,115.4h0l-5.6-.007,3.332-7.487v-.014h1.527" transform="translate(-104.691 -94.212)" fill="#ff496c"/><path d="M197.87,189.7l4.046-.689L190.5,202.692l7.312-13.162.114.057" transform="translate(-166.348 -165.048)" fill="#fd405f"/><path d="M195.413,194.465,190.5,207.439l1.589-12.17.085.011,3.2-.832" transform="translate(-166.348 -169.796)" fill="#fd405f"/><path d="M155.063,195.27l1.59,12.17-4.914-12.974.043-.016,3.2.832" transform="translate(-132.5 -169.796)" fill="#fd405f"/><path d="M104.553,189.531l7.313,13.161-11.417-13.68,4.046.689-.055-.114" transform="translate(-87.714 -165.048)" fill="#fd405f"/><path d="M125.2,167.058h.094v.3l-1.615,3.167-.043.016-.075-.2-2.324.011-.114.057h0l-1.535-3.124-.031,0,.042-.231" transform="translate(-104.401 -145.872)" fill="#fd405f"/><path d="M169.679,171.277h-3.209l.015.119-.085.011-1.581-4v-.3l3.256,0,3.255,0v.3l-1.581,4-.085-.011" transform="translate(-143.923 -145.922)" fill="#fd405f"/><path d="M221.868,167.051l.042.231-.03,0-1.536,3.124h0l-.114-.057-2.324-.011-.075.2-.043-.016-1.615-3.167v-.3h.094" transform="translate(-188.765 -145.872)" fill="#fd405f"/><path d="M235.805,107.891l6.321,6.6-.184.448-3.749.679-.042-.231L234.82,107.9v-.014" transform="translate(-205.049 -94.212)" fill="#fd405f"/><path d="M194.591,107.891l-.743,7.507-3.348-7.507" transform="translate(-166.348 -94.212)" fill="#fd405f"/><path d="M162.312,107.891l-3.35,7.507-.743-7.507" transform="translate(-138.159 -94.212)" fill="#fd405f"/><path d="M95.846,107.891v.014l-3.332,7.487-.042.231-3.749-.679-.184-.448,6.321-6.6" transform="translate(-77.314 -94.212)" fill="#fd405f"/><path d="M228.332,25.11a24.277,24.277,0,0,1-1.721,9.008l-.005,0-3.62.72-2.263-3.378A17.905,17.905,0,0,0,205.73,7.3l0-.027,2.448-3.3L206.33.879a24.344,24.344,0,0,1,22,24.231" transform="translate(-179.647 -0.767)" fill="#96efff"/><path d="M58.491,252.3l3.539-.7a24.351,24.351,0,0,1-44.108-.069l0,0,1.959-3.129,4.01.671h0a17.9,17.9,0,0,0,32.284-.194l.021.01" transform="translate(-15.65 -216.905)" fill="#6ce0f9"/><path d="M24.694,6.451v0q-.175,0-.351,0A17.9,17.9,0,0,0,7.687,30.89l-.021.009L3.609,30.22,1.694,33.279A24.355,24.355,0,0,1,24.343,0c.294,0,.586,0,.878.015l1.9,3.168" fill="#40daf4"/></svg>